# xmcd
#
# Track frame offsets:
#	150
#	21872
#	39954
#	59480
#	81267
#	107948
#	131968
#	150689
#	176647
#	202213
#	205946
#
# Disc length: 3013 seconds
#
# Revision: 1
# Processed by: cddbd v1.5.1PL2 Copyright (c) Steve Scherf et al.
# Submitted via: EasyCDDAExtractor 6.5.0.1
#
DISCID=a10bc30b
DTITLE=Czerwone Gitary
DYEAR=1900
DGENRE=
TTITLE0=Wakacyjne fotografie
TTITLE1=Warto
TTITLE2=Wszystkim, którzy o nas pamietaja
TTITLE3=Na Antypodach
TTITLE4=Wolni
TTITLE5=Nie jest zle
TTITLE6=Odmienic los
TTITLE7=Jeszcze zdazysz
TTITLE8=Zdradzonym i bezbronnym
TTITLE9=Opus 1
TTITLE10=Bonus
EXTD=
EXTT0=
EXTT1=
EXTT2=
EXTT3=
EXTT4=
EXTT5=
EXTT6=
EXTT7=
EXTT8=
EXTT9=
EXTT10=
PLAYORDER=
